<svg xmlns="http://www.w3.org/2000/svg" viewBox="0 0 1073.73 1341.69"><defs><style>.cls-1{fill:#1e88e5;}.cls-2{fill:#005f99;}.cls-3{fill:#fff;}</style></defs><title>YETI_logo_wht_1</title><g id="Calque_2" data-name="Calque 2"><g id="Calque_2-2" data-name="Calque 2"><path class="cls-1" d="M562,870c17.41-29,44.4-46.21,74.37-59.33,11.72-5.14,24-9.56,37-10.09,5.92-.24,8.28-3.85,10.51-8.07,11.81-22.42,27-42.15,46.73-58.21,4.36-3.55,6.13-8.18,7.76-13,10.79-31.86,40.48-49.06,73.1-42.41,20.59,4.19,39.69,3.55,59.12-8,39.74-23.69,86.86-7.65,100,31.92a57.18,57.18,0,0,1,.91,31.84c-2.06,8.28.29,12.46,5.08,18.1,30.2,35.53,48,75.8,45.38,123.41-.24,4.33,1.7,7.19,3.78,10.49,33.83,53.82,41,110.23,16.47,169.75-26.1,63.24-75,98.68-140.76,109.27-38.23,6.14-76.23-1.16-110.52-21.14-6.08-3.55-10.9-4.63-17.89-1.75-46.79,19.31-94.58,19-140.52-.42-33.73-14.25-60.71-38.7-80.89-70.26-20.33-31.79-28.64-66.68-28-103.56C524,951,526.59,933,536.46,917.28c7.44-3.82,17.46-5.4,20-14.37C559.5,892.29,563.19,881.47,562,870Z"/><path class="cls-1" d="M518.09,626.21c12.88,37.54,4.47,64.43-28.23,83.68-17.57,10.35-30.06,25.57-45.16,38.22-32.35,27.12-76.69,28-111.91-.77-24.62-20.11-46.42-40.75-56.77-71.58-2.72-8.1-10.1-12.21-17.86-15.84-43.84-20.46-62.39-51.76-59.55-99.8.25-4.23.74-8.79,2.54-12.52,13.3-27.67,24.25-56.74,47.11-78.75,7.53-7.26,11.71-16.66,15.63-26.28,8.62-21.11,20.06-39.94,42.25-49.81,32.93-14.65,66.92,5.26,68.72,41.09.43,8.54,2.28,8.07,9.54,6.32,11.65-2.8,20.55-8.41,29.67-16.13,22.3-18.87,48.43-25.32,75.75-12.57,28,13.07,38.62,37.74,38.63,67.64,0,27.31,6.12,36.33,32,47.16,25.72,10.77,38.87,39.23,30.75,65-8.84,28-39.13,42.59-65.54,36.69Z"/><path class="cls-1" d="M778.62,311.52c27.52-2.35,51.08,7.82,68.11,31.39,7.68,10.65,19.18,7.65,29.09,9.86,34.88,7.76,66.83,27.27,73.8,63.16,3.71,19.08,7.46,38.85,3.5,58.61a8.45,8.45,0,0,0,1.13,6.78c19.27,35.44,10.37,76.11-22.8,100.38-9,6.62-13.36,11.88-11.4,24.58,3.89,25.3-13,48.61-37.16,57.05-28.67,10-51.3-5.41-64.14-22.69C794.93,608.58,803.46,536.21,847,511.32c13.33-7.62,14.12-12.16,5.91-20-3.38-3.22-5.51-3.94-9.7-.88-24.08,17.61-47.91,15.9-72.78.26C749,477.2,727.1,464.27,706.62,449.29c-41.16-30.12-40.19-87.45,1.5-117.55C728.84,316.79,751.85,310.39,778.62,311.52Z"/><path class="cls-1" d="M608.91,1195.61c1.3,12.55-1.3,25-4.68,37.54-3.1,11.48-5.86,22.92-6.1,35.21-.27,14-9.36,24.79-20.27,32.84-24.36,18-51.12,23.77-80.31,13-27.09-10-50.27-26.73-70.65-46.24s-21.06-45.58-4.46-68.07c6-8.17,4.52-16.14,4.62-24.42.36-29,17.24-52.7,44.32-61.71,2-.68,4.08-1.62,6.16-1.74,23.27-1.4,46.74.49,69.35,4.06C584.87,1122.09,613.94,1157.07,608.91,1195.61Z"/><path class="cls-1" d="M525.63,210.81c18,7.78,23.71,17.86,17.43,30.57-6.93,14-26.34,21.65-45,16-13.77-4.14-25.95-6.38-40.74-1.58-10.72,3.48-23.1-.35-32.84-6.31-12.91-7.89-15.49-20.71-5.39-31.85,4.85-5.35,4.3-8-1.41-12C406.7,198,399,188.31,391.78,178.06c-6.11-8.71-17.8-14.16-22.36-24.21-11.62-25.55,7.33-39.56,36-51.32,29.34-12,64-7,82.59,2.72,8.08,11.27,6.93,25.56,21.58,32.53C541,152.71,552.75,190.9,525.63,210.81Z"/><path class="cls-1" d="M48.8,53.12c10,2.42,22.21-.41,34.44.06,18.07.71,30.05,9.83,34.44,27.3,1.18,4.7,3.75,7.6,6.65,10.6,6.41,6.63,11.14,14.15,13.5,23.11A39,39,0,0,0,149,133.57c10.68,10.11,6.72,39-7.38,50-9.66,7.54-12.4,13-4.24,23.81,7.12,9.4,4.88,20.38-2.09,30-8,11.08-19.42,12.23-31.35,10.1-20.64-3.68-39.45-24-40-44.88-.31-11.53,5.73-22.16,12.26-31.84,3.37-5,6.86-9.91,10.57-14.65,5.15-6.58,2.71-22.2-4.15-26.25-1.9-1.13-2.95-.35-4.47.59-10.88,6.72-18.51,1.75-27.52-5.43C38.72,115.54,27.08,106.89,21,92.08,12.54,71.5,24,53.34,48.8,53.12Z"/><path class="cls-1" d="M606.94,204.65c-4-1.42-6.16,1.83-8.86,3.53-8.89,5.59-17.62,4.67-23.78-2.55-6-7-5.88-16.79.71-23.95,5-5.46,11.08-9.73,15.64-15.92,4.18-5.67,11.45-7.51,18.88-4.88,5.11,1.82,9.1,1.16,13.69-2.65,9.7-8.06,23.38-5.54,30.66,4.74,6.66,9.43,11.58,19.65,10.79,31.42-.63,9.31,2.89,18.08,1,27.85-2.59,13.72-21.69,26.89-36.87,24.2a79.33,79.33,0,0,0-13.11-1c-11-.12-18.28-4.5-20.71-13.49-2.54-9.4.56-17.24,8.67-22.94C605.12,208.05,607.19,207.51,606.94,204.65Zm-1-.18c5.51,2.17,9.39.11,13.24,0C615.57,203.18,612.13,200.42,605.92,204.47Z"/><path class="cls-1" d="M293.71,212.2a76.76,76.76,0,0,1-15.9,54.47A50.63,50.63,0,0,1,259.73,281c-11.62,5.77-22.81,4.76-32.18-4.42-9.59-9.4-12.38-20.86-4.34-32.32,10.89-15.54,13.49-32.55,13.74-51,.24-18,13.36-29.31,29.94-28.49,15.73.78,26.49,13,26.81,30.58C293.78,200.12,293.71,204.88,293.71,212.2Z"/><path class="cls-1" d="M305.08,109.5c2.49,11.42-3.34,20.09-14.17,24.87-11.57,5.11-21.92,1.22-30.33-7.73a63.73,63.73,0,0,1-7.87-10.14c-5.35-8.65-10.85-14.2-23-15-20.18-1.29-29.42-25.72-17.69-42.28a39.25,39.25,0,0,1,45.78-13.94C284.54,55.42,304.87,82.53,305.08,109.5Z"/><path class="cls-1" d="M955.48,262.16c-6.2,9.8-1,20.86-3.22,31.54-3.4,16.57-21.64,25.95-38,19.14-20.29-8.43-26.62-23.79-20.25-43.33,2.59-7.95.86-17.16.72-25.79-.08-4.43-4.33-2.63-6.91-3.17-8.1-1.68-13.11-6.39-13.46-13.93-.3-6.48,3.74-11.22,10.43-13.59,7.78-2.75,14,.17,17.43,6.26,3.2,5.71,6.7,3.49,10.38,1.85,10.72-4.78,20.29-1.08,26.85,5.8C948.51,236.49,952.72,248.79,955.48,262.16Z"/><path class="cls-1" d="M820.48,1241.72c-3,0-6.39-.88-9,.16-20.46,8.09-31.63-1.53-41.32-18.73-8.77-15.58-2.4-43.34,19.61-50.88,12.5-4.29,24.54,4.33,34.53,10.27,8.92,5.3,17,14.21,23.67,22.65,12.07,15.35,1.84,33.84-18.44,36.46C826.56,1242,823.5,1241.7,820.48,1241.72Z"/><path class="cls-1" d="M871.07,1223.83c.11-12.69,8.84-21.73,20.52-21.25,10.12.41,19.37,9.68,18.67,20.5-.72,11.08-7.08,21-19.39,21.21C880.17,1244.47,871,1234.84,871.07,1223.83Z"/><path class="cls-1" d="M562,870c1.24,11.46-2.45,22.28-5.47,32.9-2.56,9-12.58,10.55-20,14.37C540.89,899.34,549.78,883.79,562,870Z"/><path class="cls-1" d="M631.26,162c7-7.32,12.46-4.66,17.62-4.09C643.8,159.25,639.25,163.19,631.26,162Z"/><path class="cls-2" d="M742.47,1030.83c1-7.22.92-14.85,3.3-21.59,10.11-28.64,18-58.61,32.15-85.15,28.9-54.05,97.55-72.47,152.5-44.09,53.42,27.58,76.38,94.06,52,149.68a314.31,314.31,0,0,0-13,34.82c-17.5,57.83-70.2,90.9-130.92,81.73C784.1,1138,743,1088.24,742.47,1030.83Z"/><path class="cls-2" d="M528,1037.49c33-2.11,59.14,11.92,81.11,34.91,56.14,58.76,39.15,157-34,189-52.8,23.09-125.38,15.8-161.71-39.93-5.93-9.09-8.57-20.31-12.72-30.56l10.83-65.4c15.13-25.76,36.94-44.6,62.64-59,16.69-9.36,34-17.59,51-26.33Z"/><path class="cls-2" d="M361,792.67c-51.26-1.55-86.74-41.93-80.15-88.28,1.35-9.49-4.62-10.86-9.41-14.31-37.66-27.07-44.11-80.83-13.87-116.46,29.17-34.36,83.19-36.36,115.09-3.9,16.92,17.22,24.82,38.43,22.34,62.34-.87,8.47,1.77,12.08,7.91,16.53,25.95,18.82,37.58,44.45,32.84,76.31-5,33.5-24.46,55.24-56.94,64.87C371.86,791.83,364.41,792.14,361,792.67Z"/><path class="cls-2" d="M805.11,489.58c-44-1.35-78.69-37.62-77.15-80.65,1.58-44.14,37.56-78.67,80.51-77.26,44.07,1.45,78.6,37.55,77.13,80.63C884.09,456.43,848.19,490.9,805.11,489.58Z"/><path class="cls-2" d="M481.65,131.09c.05,33.7-28.11,62.13-61.46,62-32.56-.08-60.33-28.32-60.6-61.6-.27-34,27.18-62.18,60.82-62.4C453.87,68.91,481.6,97,481.65,131.09Z"/><path class="cls-2" d="M194,159.56c-.06,33.79-28.46,62.48-61.43,62.08-33.37-.41-60.81-28.88-60.62-62.89.18-33.29,27.72-61,60.78-61.15C166.23,97.45,194,125.57,194,159.56Z"/><path class="cls-2" d="M583.44,196.1c.15-23.64,21.63-43.2,47.59-43.35,26.26-.15,48,19.74,48.05,43.88,0,23.88-22.36,44.35-48.11,44C604.73,240.3,583.29,220.21,583.44,196.1Z"/><path class="cls-2" d="M177.43,248.56c-.2-34,27.43-62.15,61-62.21s61,28,61,62.19c0,33.65-28.41,62.12-61.68,61.82C205.16,310.06,177.62,281.88,177.43,248.56Z"/><path class="cls-2" d="M907.13,323.44c-21.43-.16-38-17-38.19-38.8-.17-22.38,16.69-39.6,38.77-39.6s39,17.21,38.85,39.52S929.41,323.62,907.13,323.44Z"/><path class="cls-2" d="M791.72,1281.23c-16.92,1.08-26.3-6.21-27.45-21.32-1.22-16.05,13.61-35.51,27.83-36.54,13.61-1,31.86,17.28,32.64,32.65S814.64,1279.77,791.72,1281.23Z"/><path class="cls-2" d="M525.25,1040.18c-17,8.74-34.35,17-51,26.33-25.7,14.41-47.51,33.25-62.64,59,.53-2.94.33-6.27,1.69-8.74,9.68-17.48,19.68-34.78,29.58-52.14l2.26-1.56,10.63-6.74a2.36,2.36,0,0,1,2.22-1.08l5.61-2.89,6.27-2.78Z"/><path class="cls-2" d="M442.84,1064.64c-9.9,17.36-19.9,34.66-29.58,52.14-1.36,2.47-1.16,5.8-1.69,8.74l-10.83,65.4C384.2,1145.87,404.34,1085.47,442.84,1064.64Z"/><path class="cls-2" d="M525.25,1040.18l-55.42,9.41c18.13-10.1,37.67-13.49,58.2-12.1Z"/><path class="cls-2" d="M455.73,1056.34l-10.63,6.74Z"/><path class="cls-2" d="M463.56,1052.37l-5.61,2.89Z"/><path class="cls-3" d="M890.52,439.32c6.66-7.85,12.94-14.23,18-21.44,14.34-20.36,34.07-23.2,54.14-7.92,18.82,14.33,30.75,33.52,39.69,54.77,6.33,15,12,30.39,17.39,45.8,6.17,17.65,5,34.85-6,50.44-11.9,16.79-15.23,34.85-11.65,55.11,3,17.2-6.82,30-19.2,40-10.62,8.61-22.71,15.41-34.19,23-3,2-6.16,3.77-8.11,4.95,13.1,5.71,25.47,11.42,38.12,16.39,3.19,1.25,7.39.6,11,0,13-2.18,26.66,7,28.29,20.25,2.79,22.55,2.85,45-6.31,66.46-12.95,30.38-21.15,61.67-26,94.66-5.76,38.72-20.75,75.36-39.86,109.91-9.64,17.42-24.5,26-44.2,26.66-2.58.09-5.91-.69-7.62.61-26.22,19.82-61.78,25.84-81.89,54.33-5.36,7.61-10,17.26-10.7,26.32C799.53,1122,781.22,1143,759,1144.84c-23.69,2-36.54,13.89-39.48,37.3-1.66,13.19-1.25,26.76-4,39.66-3.13,14.47-7.18,29.22-13.81,42.34-8.31,16.44-19.63,31.35-29.68,46.9-10.85,16.81-27.16,25-46.26,27.35a515.38,515.38,0,0,1-51.52,3.28c-32.71.64-61.63-11.21-86.58-31.21-16.13-12.92-19.3-32.69-19.88-52.65-.63-21.6,10-35.62,29.68-44-.27-1.39-.54-2.79-.8-4.19-6.78,0-14-1.5-20.25.27-22.68,6.38-22.3,6.62-35.12-13.13-3.36-5.18-8.51-9.45-13.49-13.29-12.58-9.68-21.16-21.61-20.43-37.92.85-19.15-8-34-22-44.38-32.42-24-26.35-55.64-7.57-77.19,10.94-12.54,24.89-22.41,36.89-34.1,5.61-5.47,9.66-12.5,14.65-18.64,7.26-9,13.28-20,22.58-25.83,6.72-4.17,10.32-8.07,11.14-14.72,4.44-35.89,24.42-59.91,55.07-77.88,35.95-21.08,70.82-44,105.8-66.74,17.8-11.55,37.23-11.38,57.2-11.55,11.09-.09,22.14-3.34,33.95-5.29-5.79-27.65-23.13-42-44.79-50.09-21.08-7.88-42.19-14.8-59.72-29.57-1.69-1.42-5.25-2.81-6.68-2-13.24,7.49-29.14,11.72-35.4,28.11-7.35,19.3-22.38,24.8-41.53,22.52-17.28-2.05-31.81-8-37.33-26.54-.23-.79-.89-1.45-1.95-3.11-8.75,10.93-18.53,20.81-25.54,32.37-16.78,27.67-41.83,37.89-72.71,38.62-23.31.56-44.25-5.41-62.83-19.53-2.05-1.55-4-3.43-6.38-4.34-33.47-13.07-45.57-40.92-51.31-73.35-1.58-8.89-3-17.94-5.94-26.42-7.68-22.24-7.14-44,2-65.52,3.27-7.65,3.23-13.74-3.5-19.56-4.51-3.91-7.53-9.65-12.24-13.22-29.58-22.44-29.88-52.2-23.75-85,5.13-27.39,21-47.33,38.91-66.85,7.78-8.44,14.17-18.27,20.43-28,16.49-25.52,35.45-48.36,69.36-45.65,18.77,1.5,31.59-5.72,41.41-19.3,8.58-11.88,20.58-14.64,33.3-16.61,23.3-3.62,44.11,2.19,63.29,16.14,6.42,4.67,15,6.84,23,8.69,5.73,1.34,12,.24,18.08.27,23.15.13,36.45,12.68,42.1,35.43,3.68,14.83,11.07,28.74,16.91,43,4.34,10.63,8.89,21.18,13.28,31.79.48,1.16.06,3.23.8,3.68,24.31,14.86,7.76,33.69,6.09,51.53l105,52,3.07-5.76c-7.07-3.86-13.71-9.29-21.26-11.32-38.68-10.41-66.26-31-73.5-73.08a526.64,526.64,0,0,0-12.41-53.59c-5.37-19,4-35.27,7.73-52.63a3.88,3.88,0,0,1,.43-1.21c5.56-9.82,8.87-24.66,17.17-28.38a59.66,59.66,0,0,1,54.71,2.45c16.5,9.19,33.9,16.75,50.86,25.13,16.79,8.29,34.07,3,50.79.83,18.39-2.4,33.41,2.71,48.59,12.23,10.32,6.48,22.16,10.87,33.78,14.85,17.63,6,21.14,14.68,10.85,30-.9,1.35-2.31,2.83-2.32,4.26-.09,9.7-.06,19.41.42,29.1C886.45,433.8,888.52,435.8,890.52,439.32Z"/><path class="cls-3" d="M149.8,293.15c-7.69.67-14.23,3.16-18.08,1-2.9-1.65-2.36-9.32-3.49-15-35-11-51.91-27.77-53.16-53.9-.73-15.26,5.92-24.84,18.64-30.85a8.56,8.56,0,0,0,2.18-13.89c-18.7-17.95-34.61-36.29-24.21-66.07l-3.28-.58c-2.54,3.36-5.83,6.4-7.48,10.15C56.24,134.63,46.08,141.32,38,137c-8.84-4.74-13.31-12.21-9.13-18.86-3.75-10.29-5.79-18.19-9.44-25.26s-9.19-13-13.22-19.78C3.36,68.27-.9,62.15.17,57.77s7.33-9.22,12.33-11c20.9-7.55,53.26,9,64.25,21.42,2.67,3,2.17,9.6,1.69,14.4s-2.78,9.49-5,16.61c11.42-10.68,20-20.29,30.18-27.85C118.72,60,136.79,58.16,152,68.74c22.91,15.9,48.41,11.82,73.24,14.59a163.58,163.58,0,0,1,35.62,7.73c10,3.49,18.75,10.16,28.32,14.9,18.92,9.37,31,23.24,34.76,44.82,1.27,7.31,8.19,13.57,12.21,20.49,12.74,21.89,9.8,44.64-6.28,63.58-9.14,10.77-15.33,23-15.56,38.51-.13,9.22-5.81,19.05-11,27.36-8.15,13-19.12,24.37-26.85,37.62-11.37,19.47-32.09,21.49-44.14,2.39-4.65-7.37-9.25-9.56-17.71-8.14-26.94,4.51-48.52-2.26-59.15-30.26C154,298.41,151,295.06,149.8,293.15Z"/><path class="cls-3" d="M393.31,69.28c4.91,9.5,10.51,11.15,19.6,6.2,28.35-15.43,51.8-9.91,71.95,14.79,4.5,5.52,13,8.74,20.32,10.82,18.74,5.34,40.83,8.08,44.38,31.27s3.41,47-12.45,67.76c-6.6,8.62-10.85,19.16-15.3,29.2-1.29,2.92-.34,7.42.85,10.75C527,252.2,521,263.34,508.36,264c-7.62.39-12.9,1.14-15.19,9.94-.71,2.71-7.36,5.65-11.11,5.41-6.9-.42-13.61-3.38-20.5-4.8-8.26-1.71-18.38-13.86-18.92-23.73-.3-5.54-4.25-3.78-4.25-12.84-11.87-.15-19.07-9.12-29.92-7.36-13.14,2.12-26,5.66-35.63-6.53-10.12-12.79-7.94-27.53-3.68-41.85,1.68-5.64,4.89-10.82,8-17.48-30.17-12.12-23-26.42-36-49.35-7.46-13.18,11.69-39.54,27.09-43.56Z"/><path class="cls-3" d="M638.73,268.06c-7.49,12.23-15.86,22.66-32,19.62-1.68-.32-4.21.46-5-.46-15.11-16.51-40.65-20.21-51-43-8-17.59-9.5-34.33-1.87-52.2,4-9.47,8.63-19.31,9.72-29.33,2.89-26.5,22.26-41.25,39.76-56.6,4.52-4,17.53-2.22,24.27,1.36,7.75,4.12,12.87,13.18,19.17,20.12,11.82-8,22.17-8,30,.08,9.14,9.41,8.34,15.53-4.16,32,23.58,6.23,34,18.69,31.53,42.47-1.83,17.69-4.86,35.92-11.4,52.31C679.68,274.65,659.89,279.3,638.73,268.06Z"/><path class="cls-3" d="M761.22,306.48c-18.77,0-32-8.78-39.67-25.69-4.84-10.71-4.35-21.53,5.15-29.45,8.47-7.06,6.63-12.2-.25-18.74-30.19-28.68-15-64.92,9-85,13.43-11.22,36.57-1.42,42.15,17.43,3.66,12.37,10.61,14.74,21.87,12.77,15.13-2.64,28.39,6.4,32,21.37,2.69,11.23,5.47,22.47,7.31,33.85a38.12,38.12,0,0,1-.88,16.57C829,278.86,791.4,306.44,761.22,306.48Z"/><path class="cls-3" d="M908.74,331.69c-32.56,0-57.77-22.34-56.24-49,.26-4.56.85-10.73,3.78-13.21,10.3-8.72,8.19-18.32,6.08-29.65-3.86-20.8,11.56-40.94,31-42.92,20.41-2.07,38.76,14.52,39.59,36.51.47,12.26-.51,24.58-.17,36.86.09,3,2.74,6,4.28,8.93,6,11.51,9.26,23,2.18,35.48S922.05,333.42,908.74,331.69Z"/><path class="cls-3" d="M427.66,933.12c-15.41.23-22.92-8.52-21.1-19.22a145.94,145.94,0,0,0,2.36-20.06c.6-21.35,16.89-31.67,36.07-22.54,28.28,13.45,28.26,13.46,7.26,38.33-3.6,4.27-6.27,9.44-10.34,13.13C436.74,927.45,430.59,931.05,427.66,933.12Z"/><path class="cls-3" d="M422.36,17.43c-.06-13,6.56-19.06,15.77-17C459.23,5,469.62,21.79,479,38.63c4.86,8.68-4.83,12.13-10.21,15-16.59,8.95-32.14,6.78-38.19-11.21C427.51,33.15,424.47,23.81,422.36,17.43Z"/><path class="cls-3" d="M1035.82,670.11c-.88,2-2,6.25-4.43,9.52-6.73,9-34.14,14.89-44.36,10.07-9.56-4.51-11-14.21-3.92-22.18,4.25-4.78,7.59-10.4,11.08-15.8,4.63-7.17,9.75-13.55,19.54-11.33C1024.65,642.87,1035.94,657.23,1035.82,670.11Z"/><path class="cls-3" d="M640,45c6,5.92,11.17,9.34,14.07,14.11,6.71,11,12.72,22.51,18.3,34.15,4.12,8.59-3.51,18.38-13,16.62-7.4-1.38-15.5-2.9-21.42-7-4.66-3.24-8.43-10.34-9.09-16.13-1-9.17.09-18.81,1.81-28C631.49,54.53,635.84,51,640,45Z"/><path class="cls-3" d="M858.41,1067.19c7.81.67,14.4,5.68,12.51,14.66-2,9.71-5.71,20.24-12,27.45-4.06,4.62-14.86,6.47-21.52,4.88-8.41-2-9.66-10.89-7.57-19.38C833.37,1080.21,845.75,1067.52,858.41,1067.19Z"/><path class="cls-3" d="M250.94,661.07c-5.31,5.83-8.45,12.28-13,13.53-5.31,1.46-15.06.37-17.27-3.14-5.52-8.77-9-19.32-10.88-29.59-.7-3.78,4.39-11,8.43-12.59,3.67-1.43,11.11,1.28,14.06,4.65C239.08,641.7,244.18,651,250.94,661.07Z"/><path class="cls-3" d="M894.33,192.54c-9,0-15.4-3.44-15.28-13.34.18-15,9.62-26.89,20.79-27,9.83-.07,17.7,7.7,17.18,17C916.32,181.92,905.73,192.81,894.33,192.54Z"/><path class="cls-3" d="M798.67,153.44c-16.51.36-24.88-8.75-22.67-21.53a74.87,74.87,0,0,1,5.66-19.16c3.5-7.39,10.51-7.46,14.29-1.33a95.49,95.49,0,0,1,12,28.16C809.82,147.83,804.12,153.17,798.67,153.44Z"/><path class="cls-3" d="M172.32,336c15.27.37,21.59,6.23,21.3,16.87-.27,9.87-8,18-16.73,17.62-10.69-.43-21-10.11-20.1-19.48C157.84,339.83,165.23,336,172.32,336Z"/><path class="cls-3" d="M298,1054.37c-13.75.31-25.64-9.88-23.6-18.4,1.24-5.18,7.26-11.53,12.37-13,8-2.24,21.85,10,20.17,17.35C305.57,1046.23,300.14,1051.17,298,1054.37Z"/><path class="cls-3" d="M1073.73,549.67c-4.1,2.63-9.6,8.87-15.58,9.38-9.37.8-14.52-6.7-14.31-16,.2-9,5.38-14.81,14.68-14S1072.58,536.16,1073.73,549.67Z"/><path class="cls-3" d="M705.12,1301.92c-.3,16.24-9.62,18-18,18.58-2.83.2-8.33-5.77-8.75-9.38-1-8.61,9.15-20.93,15.17-18.85C698.84,1294.08,702.75,1299.82,705.12,1301.92Z"/><path class="cls-3" d="M849.46,1140.86c-5.07,3.25-10.59,9.6-15.07,8.93-4.89-.73-8.81-8-13.15-12.34,4.44-4.31,8.53-11.48,13.42-12.08,4.5-.55,9.87,6,14.86,9.38Z"/><path class="cls-3" d="M228.18,692.91c-4.64,3.26-8.92,8.4-14,9.35-7.88,1.47-14-4.29-12.49-12,.91-4.78,7.2-11.6,11.45-11.88,4.82-.32,10,5.64,15.11,8.87Z"/><path class="cls-3" d="M605.62,740.3c-4-6.68-7.7-10.22-7-12.19,2.7-7.6-.91-20.56,12.66-20,3.93.17,11.44,9,10.63,10.74C618.63,725.8,612.74,731.46,605.62,740.3Z"/><path class="cls-3" d="M236,353.3c-6.69,4.83-10.8,10-13.93,9.5-4-.68-9.21-5.54-10.08-9.45-.58-2.59,5.47-9.34,8.67-9.42C224.65,343.83,228.81,348.63,236,353.3Z"/><path class="cls-3" d="M1070.82,643.91c-5.74,4.49-9.1,9.17-12.36,9.1s-6.55-4.81-9.82-7.51c3-3.44,5.49-8.69,9.17-9.72C1060.48,635,1064.72,639.87,1070.82,643.91Z"/><path class="cls-3" d="M93.15,64.82c-3.45-4.8-6.79-7.46-7-10.31-.12-2.16,4.15-6.68,5.8-6.39,2.93.53,7,3.58,7.51,6.16C100,56.69,96.34,59.86,93.15,64.82Z"/><path d="M566.16,986l33.39-78.75h47.23l-58.44,116.25v65.17H544v-65.17L485.66,907.24h47Z"/><path d="M772.5,1011.66H703.72V1055H785v33.64H660V907.24H785.21V941H703.72v38.26H772.5Z"/><path d="M947.7,941H893.25v147.66H849.51V941H796.06V907.24H947.7Z"/><path d="M1012.74,1088.66H969.13V907.24h43.61Z"/></g></g></svg>